<svg width="18" height="18" viewBox="0 0 18 18" fill="none" xmlns="http://www.w3.org/2000/svg">
<path d="M9.00001 0.666668C4.40834 0.666668 0.666672 4.40833 0.666672 9C0.666672 13.5917 4.40834 17.3333 9.00001 17.3333C13.5917 17.3333 17.3333 13.5917 17.3333 9C17.3333 4.40833 13.5917 0.666668 9.00001 0.666668ZM12.9833 7.08333L8.25834 11.8083C8.14167 11.925 7.98334 11.9917 7.81667 11.9917C7.65001 11.9917 7.49167 11.925 7.37501 11.8083L5.01667 9.45C4.77501 9.20833 4.77501 8.80833 5.01667 8.56667C5.25834 8.325 5.65834 8.325 5.90001 8.56667L7.81667 10.4833L12.1 6.2C12.3417 5.95833 12.7417 5.95833 12.9833 6.2C13.225 6.44167 13.225 6.83333 12.9833 7.08333Z" fill="#50C878"/>
</svg>
